<svg width="22" height="23" viewBox="0 0 22 23" fill="none" xmlns="http://www.w3.org/2000/svg">
<path fill-rule="evenodd" clip-rule="evenodd" d="M0.5 5.9002C0.5 3.00724 2.73853 0.662109 5.5 0.662109H16.5C19.2615 0.662109 21.5 3.00724 21.5 5.9002V17.424C21.5 20.317 19.2615 22.6621 16.5 22.6621H5.5C2.73853 22.6621 0.5 20.317 0.5 17.424V5.9002ZM16.5 7.99544C17.6046 7.99544 18.5 7.05742 18.5 5.9002C18.5 4.74299 17.6046 3.80497 16.5 3.80497C15.3954 3.80497 14.5 4.74299 14.5 5.9002C14.5 7.05742 15.3954 7.99544 16.5 7.99544ZM10.5 17.424C13.2615 17.424 15.5 15.0789 15.5 12.1859C15.5 9.29295 13.2615 6.94782 10.5 6.94782C7.73853 6.94782 5.5 9.29295 5.5 12.1859C5.5 15.0789 7.73853 17.424 10.5 17.424ZM10.5 15.3288C12.1569 15.3288 13.5 13.9217 13.5 12.1859C13.5 10.4502 12.1569 9.04306 10.5 9.04306C8.84314 9.04306 7.5 10.4502 7.5 12.1859C7.5 13.9217 8.84314 15.3288 10.5 15.3288Z" fill="white"/>
</svg>
