<svg width="25" height="25" viewBox="0 0 25 25" fill="none" xmlns="http://www.w3.org/2000/svg">
<path d="M10.2034 0.5C15.8386 0.5 20.4067 4.8854 20.4067 10.2952C20.4067 12.7621 19.4562 15.0156 17.8884 16.7378L24.7981 23.3711L24.8455 23.4209C25.0663 23.6807 25.0504 24.0639 24.7981 24.3061C24.5458 24.5484 24.1466 24.5637 23.8759 24.3517L23.824 24.3061L16.9144 17.6728C15.1204 19.178 12.7731 20.0904 10.2034 20.0904C4.56812 20.0904 0 15.705 0 10.2952C6.56172e-07 4.8854 4.56812 0.500001 10.2034 0.5ZM10.2034 1.82259C5.32915 1.8226 1.37771 5.61599 1.3777 10.2952C1.3777 14.9744 5.32915 18.7678 10.2034 18.7678C15.0775 18.7678 19.029 14.9744 19.029 10.2952C19.029 5.61599 15.0775 1.82259 10.2034 1.82259Z" fill="white"/>
</svg>
