<svg width="23" height="26" viewBox="0 0 23 26" fill="none" xmlns="http://www.w3.org/2000/svg">
<path d="M22.4802 12.9689L21.1546 6.18532C21.0866 5.83405 20.8412 5.55455 20.5126 5.43746C20.5088 5.43746 20.505 5.43369 20.5013 5.43369C20.4559 5.41858 20.4144 5.40725 20.3653 5.39592L16.5547 4.65184C16.5584 4.54609 16.5622 4.43655 16.566 4.32702C16.5698 4.24392 16.5773 4.16083 16.5849 4.08151C16.5886 4.05507 16.5886 4.02863 16.5924 4.00219C16.7019 2.88797 17.0267 1.8644 17.4988 1.1241C17.9294 0.451788 18.443 0.0929705 18.9151 0.138295C19.3834 0.183619 19.8177 0.640639 20.1085 1.38471C20.4257 2.20433 20.539 3.26945 20.4295 4.38367C20.4144 4.53098 20.3955 4.67828 20.3729 4.82181L20.471 4.84069C20.6297 4.87091 20.7807 4.92757 20.9167 4.99933C20.9469 4.81425 20.9733 4.6254 20.9922 4.44033C21.1131 3.23923 20.9847 2.07969 20.6372 1.18075C20.2633 0.213835 19.6704 -0.352719 18.9717 -0.424483C17.5819 -0.564233 16.2903 1.35827 16.0297 3.94554C16.0297 3.95309 16.0297 3.96442 16.0259 3.97198C16.0146 4.07773 16.007 4.18727 15.9995 4.29303C15.9957 4.37612 15.9919 4.45921 15.9882 4.54231L13.5787 4.07018C13.5144 4.05885 13.4465 4.0513 13.3823 4.0513C13.1066 4.0513 12.8384 4.16083 12.6383 4.36479L0.81356 16.202C0.613397 16.3984 0.503874 16.6628 0.500098 16.9385C0.496321 17.2142 0.602067 17.4711 0.7909 17.6599L8.8956 25.7654C9.08821 25.9581 9.34502 26.06 9.61694 26.0563C9.89264 26.0525 10.1532 25.9429 10.3534 25.7428L22.1856 13.9093C22.4387 13.6638 22.5482 13.3088 22.4802 12.9689ZM19.2625 9.49777C19.1115 9.64885 18.9339 9.76216 18.7451 9.84148C18.5563 9.91702 18.3561 9.95479 18.156 9.95479C17.7556 9.95479 17.3591 9.80371 17.0532 9.49777C16.7586 9.20316 16.5962 8.81035 16.5962 8.39488C16.5962 8.20225 16.6302 8.01717 16.6982 7.83965C16.7284 7.88498 16.7548 7.9303 16.7888 7.97563C16.9059 8.14182 17.0305 8.28534 17.1665 8.40621C17.4346 8.64416 17.733 8.78013 18.054 8.81413C18.1031 8.8179 18.1484 8.82168 18.1975 8.82168C18.5185 8.82168 18.8395 8.71215 19.1492 8.50063C19.153 8.46664 19.1568 8.43265 19.1568 8.39488C19.1568 8.21358 19.1077 8.03606 19.017 7.88498C18.7829 8.09272 18.4694 8.28534 18.1144 8.25135C17.7972 8.22113 17.5441 8.0134 17.3704 7.80188C17.3289 7.75278 17.2911 7.70368 17.2609 7.65458C17.1854 7.54882 17.1174 7.43173 17.0532 7.30332L17.0607 7.29576C17.6688 6.68766 18.6583 6.68766 19.2663 7.29576C19.5609 7.59037 19.7233 7.98318 19.7233 8.39865C19.7195 8.81413 19.5571 9.20316 19.2625 9.49777Z" fill="#37A4F8"/>
</svg>
