<svg width="21" height="20" viewBox="0 0 21 20" fill="none" xmlns="http://www.w3.org/2000/svg">
<path fill-rule="evenodd" clip-rule="evenodd" d="M19.895 17.9236C20.1747 18.2597 20.3944 18.9506 20.4756 19.2323C20.5284 19.4142 20.4947 19.6061 20.3826 19.7585C20.2699 19.9121 20.0974 20 19.9092 20H10.5785C10.3903 20 10.2179 19.9121 10.1051 19.7589C9.99305 19.6065 9.959 19.4149 10.0114 19.2327C10.0926 18.951 10.3123 18.2597 10.592 17.924C10.8919 17.564 11.3364 17.3572 11.8116 17.3572V13.5654C11.8116 13.394 11.6915 13.2442 11.5268 13.2092L5.97371 12.0353C5.83641 12.0063 5.69618 12.0744 5.63211 12.2011L5.32383 12.8112C5.1631 13.1291 4.82224 13.3031 4.47588 13.2442L1.16829 12.6819C0.743579 12.6096 0.452874 12.2127 0.506329 11.7778L0.773602 9.6019C0.823395 9.19534 1.16499 8.88865 1.56737 8.88865H12.0086V4.41348L3.99918 2.25545C3.7872 2.19843 3.63891 2.00242 3.63891 1.7792V0.492436C3.63891 0.348965 3.70006 0.21332 3.8066 0.119411C3.91314 0.0258794 4.05447 -0.0151159 4.1936 0.00500873L16.4889 1.85746C17.2222 1.96777 17.7901 2.59456 17.8384 3.34769L18.2108 9.12267L18.7856 17.3613C19.2187 17.3907 19.6185 17.5916 19.895 17.9236ZM4.13062 0.501752V1.77883L12.3172 3.97822C12.4252 4.00766 12.5003 4.10678 12.5003 4.22044V8.88828H17.7026L17.3474 3.38049C17.3141 2.86101 16.9227 2.42911 16.4168 2.35271L4.13062 0.501752ZM6.07366 11.5449L11.6267 12.7188C12.0188 12.8015 12.3033 13.1581 12.3033 13.5654V17.3572H18.2921L17.7363 9.38912H1.56737C1.41213 9.38912 1.28069 9.50725 1.26165 9.66376L0.994377 11.84C0.973874 12.0074 1.08591 12.1605 1.2492 12.1881L4.55679 12.7504C4.69153 12.7728 4.8237 12.7053 4.88631 12.582L5.19459 11.972C5.35935 11.6459 5.72145 11.4704 6.07366 11.5449ZM19.9089 19.4992C19.9521 19.4992 19.9773 19.4738 19.9883 19.4585C19.9989 19.444 20.0151 19.4134 20.0037 19.3736C19.8573 18.8664 19.6672 18.4244 19.5197 18.2474C19.3132 17.9996 19.0053 17.8576 18.6747 17.8576H11.812C11.4814 17.8576 11.1734 17.9996 10.9673 18.2474C10.8201 18.4241 10.6301 18.8664 10.4833 19.3736C10.4716 19.4134 10.4881 19.444 10.4987 19.4585C10.5097 19.4738 10.5349 19.4992 10.5781 19.4992H19.9089ZM2.59216 14.0905C2.62071 14.1345 3.29988 15.1928 4.06179 17.1626C4.42169 18.0939 4.19616 18.7401 3.94353 19.1176C3.5364 19.7261 2.8327 20 2.46291 20H2.28717C1.91738 20 1.21369 19.7261 0.806187 19.1172C0.553559 18.7397 0.327659 18.0939 0.687928 17.1626C1.44984 15.1924 2.129 14.1345 2.15756 14.0905C2.20296 14.0204 2.28022 13.978 2.36296 13.978H2.38676C2.4695 13.978 2.54676 14.0201 2.59216 14.0905ZM2.46291 19.4992C2.67563 19.4992 3.22702 19.2987 3.53713 18.8355C3.80733 18.4315 3.83003 17.9303 3.60413 17.346C3.10144 16.0458 2.62877 15.1429 2.37504 14.6934C2.12095 15.1429 1.64901 16.0458 1.14595 17.3463C0.920053 17.9303 0.942387 18.4315 1.21295 18.8355C1.52306 19.2987 2.07445 19.4992 2.28717 19.4992H2.46291Z" fill="#393939"/>
</svg>
