<svg width="12" height="11" viewBox="0 0 12 11" fill="none" xmlns="http://www.w3.org/2000/svg">
<path d="M11.5 5.5C11.5 6.95869 10.9205 8.35764 9.88909 9.38909C8.85764 10.4205 7.45869 11 6 11C4.54131 11 3.14236 10.4205 2.11091 9.38909C1.07946 8.35764 0.5 6.95869 0.5 5.5C0.5 4.04131 1.07946 2.64236 2.11091 1.61091C3.14236 0.579463 4.54131 0 6 0C7.45869 0 8.85764 0.579463 9.88909 1.61091C10.9205 2.64236 11.5 4.04131 11.5 5.5ZM6 2.40625C6 2.31508 5.96378 2.22765 5.89932 2.16318C5.83485 2.09872 5.74742 2.0625 5.65625 2.0625C5.56508 2.0625 5.47765 2.09872 5.41318 2.16318C5.34872 2.22765 5.3125 2.31508 5.3125 2.40625V6.1875C5.31252 6.24809 5.32855 6.3076 5.35898 6.36C5.3894 6.4124 5.43314 6.45582 5.48575 6.48588L7.892 7.86088C7.97096 7.90355 8.06349 7.91365 8.1498 7.88901C8.23611 7.86437 8.30936 7.80694 8.3539 7.72901C8.39843 7.65108 8.41071 7.55882 8.38812 7.47195C8.36553 7.38508 8.30986 7.31049 8.233 7.26412L6 5.98812V2.40625Z" fill="#005FAE"/>
</svg>
