<svg width="11" height="11" viewBox="0 0 11 11" fill="none" xmlns="http://www.w3.org/2000/svg">
<path fill-rule="evenodd" clip-rule="evenodd" d="M1.29622 0.48098C1.41651 0.371781 1.56096 0.28707 1.71998 0.232463C1.879 0.177855 2.04898 0.154597 2.21864 0.16423C2.3883 0.173863 2.55377 0.216167 2.70408 0.288339C2.8544 0.360511 2.98613 0.460902 3.09054 0.58286L4.32456 2.02418C4.55074 2.28856 4.63049 2.63295 4.54112 2.95797L4.16507 4.32678C4.14563 4.39768 4.14668 4.47194 4.16812 4.54236C4.18956 4.61278 4.23066 4.67696 4.28744 4.72868L5.97657 6.26437C6.03352 6.31609 6.10423 6.35353 6.18182 6.37302C6.25941 6.39252 6.34123 6.39342 6.41931 6.37563L7.9242 6.03374C8.10062 5.99363 8.28475 5.99052 8.46269 6.02463C8.64062 6.05873 8.8077 6.12917 8.95129 6.23062L10.5366 7.35192C11.1065 7.75506 11.1588 8.52072 10.6487 8.98387L9.93782 9.63015C9.42909 10.0927 8.66874 10.2958 7.95995 10.0689C6.14582 9.4886 4.49868 8.54437 3.14073 7.30629C1.77903 6.07187 0.740469 4.57458 0.102071 2.92547C-0.146797 2.28169 0.0766339 1.58978 0.585368 1.12726L1.29622 0.48098Z" fill="white"/>
</svg>
