<svg width="40" height="40" viewBox="0 0 40 40" fill="none" xmlns="http://www.w3.org/2000/svg">
<path fill-rule="evenodd" clip-rule="evenodd" d="M38.3202 35.4715C38.8656 36.127 39.294 37.4742 39.4525 38.0236C39.5553 38.3782 39.4896 38.7524 39.2712 39.0496C39.0513 39.349 38.715 39.5205 38.348 39.5205H20.1531C19.7861 39.5205 19.4498 39.349 19.2299 39.0504C19.0114 38.7531 18.9451 38.3796 19.0471 38.0243C19.2056 37.4749 19.634 36.127 20.1795 35.4722C20.7642 34.7703 21.6309 34.367 22.5576 34.367V26.9731C22.5576 26.6388 22.3235 26.3467 22.0022 26.2784L11.1737 23.9894C10.906 23.9327 10.6326 24.0657 10.5076 24.3127L9.90647 25.5023C9.59305 26.1222 8.92836 26.4615 8.25297 26.3467L1.80316 25.2502C0.974979 25.1092 0.408105 24.3353 0.512342 23.4872L1.03352 19.2442C1.13062 18.4514 1.79673 17.8534 2.58136 17.8534H22.9417V9.12679L7.32341 4.91864C6.91003 4.80746 6.62088 4.42523 6.62088 3.98995V1.48076C6.62088 1.20099 6.74011 0.936481 6.94787 0.753359C7.15563 0.570973 7.43121 0.491032 7.70251 0.530275L31.6783 4.14255C33.1084 4.35765 34.2157 5.57991 34.3099 7.04851L35.036 18.3097L36.1569 34.375C37.0015 34.4324 37.7811 34.824 38.3202 35.4715ZM7.57971 1.49892V3.98923L23.5436 8.27804C23.7542 8.33544 23.9006 8.52874 23.9006 8.75037V17.8526H34.0451L33.3525 7.11245C33.2876 6.09948 32.5243 5.25727 31.5377 5.1083L7.57971 1.49892ZM11.3686 23.0331L22.1971 25.3221C22.9617 25.4834 23.5165 26.1788 23.5165 26.9731V34.367H35.1945L34.1107 18.8293H2.58136C2.27865 18.8293 2.02234 19.0596 1.98522 19.3648L1.46403 23.6086C1.42405 23.9349 1.64252 24.2335 1.96094 24.2873L8.41075 25.3839C8.67348 25.4275 8.93122 25.2959 9.0533 25.0554L9.65445 23.8658C9.97572 23.23 10.6818 22.8877 11.3686 23.0331ZM38.3473 38.5439C38.4315 38.5439 38.4808 38.4944 38.5022 38.4647C38.5229 38.4363 38.5543 38.3767 38.5322 38.299C38.2466 37.31 37.8761 36.4481 37.5884 36.103C37.1857 35.6197 36.5853 35.3429 35.9406 35.3429H22.5583C21.9136 35.3429 21.3132 35.6197 20.9113 36.103C20.6243 36.4474 20.2537 37.31 19.9674 38.299C19.9446 38.3767 19.9767 38.4363 19.9974 38.4647C20.0188 38.4944 20.0681 38.5439 20.1523 38.5439H38.3473ZM4.5797 27.997C4.63539 28.0827 5.95977 30.1465 7.44549 33.9876C8.1473 35.8036 7.70751 37.0636 7.21489 37.7998C6.42098 38.9864 5.04877 39.5205 4.32768 39.5205H3.98499C3.2639 39.5205 1.89169 38.9864 1.09707 37.799C0.60444 37.0629 0.163935 35.8036 0.866459 33.9876C2.35219 30.1457 3.67656 28.0827 3.73225 27.997C3.82078 27.8604 3.97142 27.7775 4.13277 27.7775H4.17918C4.34053 27.7775 4.49117 27.8596 4.5797 27.997ZM4.32768 38.5439C4.74248 38.5439 5.81769 38.1529 6.4224 37.2497C6.9493 36.462 6.99356 35.4846 6.55306 34.3452C5.57281 31.8098 4.6511 30.0491 4.15633 29.1727C3.66085 30.0491 2.74057 31.8098 1.75961 34.3459C1.3191 35.4846 1.36265 36.462 1.89026 37.2497C2.49498 38.1529 3.57018 38.5439 3.98499 38.5439H4.32768Z" fill="white"/>
</svg>
