<svg width="23" height="24" viewBox="0 0 23 24" fill="none" xmlns="http://www.w3.org/2000/svg">
<path d="M5.40654 23.6621H0.842571V8.32023H5.40654V23.6621ZM3.16738 6.21073C2.64224 6.21325 2.12818 6.05301 1.69021 5.75026C1.25223 5.44752 0.910012 5.01587 0.706818 4.50991C0.503624 4.00394 0.448585 3.44638 0.548661 2.90773C0.648738 2.36908 0.899433 1.87353 1.26905 1.48375C1.63867 1.09397 2.1106 0.827471 2.62517 0.717943C3.13975 0.608415 3.67385 0.660782 4.15994 0.868422C4.64603 1.07606 5.06227 1.42965 5.35604 1.88447C5.6498 2.33929 5.8079 2.87492 5.81033 3.42362C5.81194 3.78795 5.74484 4.14904 5.6129 4.48628C5.48095 4.82352 5.28672 5.13031 5.0413 5.38911C4.79588 5.64792 4.50407 5.85369 4.18255 5.99466C3.86102 6.13563 3.51606 6.20905 3.16738 6.21073ZM22.5 23.6621H17.936V16.1829C17.936 14.4058 17.936 12.1173 15.5623 12.1173C13.1885 12.1173 12.8215 14.0607 12.8215 16.0551V23.6621H8.26972V8.32023H12.6379V10.4042H12.7113C13.1406 9.60778 13.7697 8.94883 14.5307 8.49826C15.2918 8.0477 16.1561 7.8226 17.0306 7.84719C21.6435 7.84719 22.5 11.0306 22.5 15.1602V23.6621Z" fill="white"/>
</svg>
