<svg width="12" height="11" viewBox="0 0 12 11" fill="none" xmlns="http://www.w3.org/2000/svg">
<path fill-rule="evenodd" clip-rule="evenodd" d="M1.79622 0.350758C1.91651 0.230639 2.06096 0.137457 2.21998 0.0773887C2.379 0.0173203 2.54898 -0.00826344 2.71864 0.00233294C2.8883 0.0129293 3.05377 0.0594638 3.20408 0.138853C3.3544 0.218242 3.48613 0.328672 3.59054 0.462826L4.82456 2.04827C5.05074 2.3391 5.13049 2.71793 5.04112 3.07545L4.66507 4.58114C4.64563 4.65913 4.64668 4.74082 4.66812 4.81828C4.68956 4.89574 4.73066 4.96634 4.78744 5.02322L6.47657 6.71249C6.53352 6.76938 6.60423 6.81056 6.68182 6.83201C6.75941 6.85345 6.84123 6.85444 6.91931 6.83487L8.4242 6.45879C8.60062 6.41468 8.78475 6.41125 8.96269 6.44877C9.14062 6.48629 9.3077 6.56377 9.45129 6.67536L11.0366 7.90879C11.6065 8.35225 11.6588 9.19448 11.1487 9.70394L10.4378 10.4148C9.92909 10.9236 9.16874 11.1471 8.45995 10.8975C6.64582 10.2591 4.99868 9.22049 3.64073 7.8586C2.27903 6.50074 1.24047 4.85372 0.602071 3.03969C0.353203 2.33154 0.576634 1.57044 1.08537 1.06167L1.79622 0.350758Z" fill="#005FAE"/>
</svg>
