<svg width="45" height="45" viewBox="0 0 45 45" fill="none" xmlns="http://www.w3.org/2000/svg">
<g filter="url(#filter0_d_3897_3229)">
<circle cx="22.5" cy="19.5" r="19.5" fill="#319120"/>
<circle cx="22.5" cy="19.5" r="18.5" stroke="white" stroke-width="2"/>
</g>
<path d="M32.8887 22.8969C32.7301 22.8851 32.5821 22.8195 32.492 22.681C32.3709 22.4942 32.4207 22.2264 32.6117 22.088C32.6372 22.0131 32.6736 21.9411 32.7301 21.8836C32.7301 21.8718 32.7329 21.8617 32.7301 21.847C32.7301 21.7958 32.7234 21.746 32.7234 21.6947C32.7234 21.7874 32.687 21.8081 32.5136 21.8053C32.4853 21.8053 32.4115 21.7955 32.3709 21.7805C32.3603 21.7929 32.3427 21.8053 32.313 21.8116C32.219 21.6268 32.445 21.4324 32.546 21.2787C32.3603 21.2039 32.1919 21.3029 32.0347 21.3484C31.8789 21.3927 31.9004 21.2787 31.9208 21.1895C31.9343 21.1348 31.9315 21.1279 31.9231 21.0835C31.9208 21.0594 31.9071 21.0323 31.9043 20.9998C31.9164 20.9998 31.9315 20.9998 31.9435 20.9963C31.9838 20.9894 32.0053 20.941 32.0456 20.9278C32.1113 20.9071 32.1799 20.9335 32.2434 20.9215C32.4517 20.8884 32.3992 20.7346 32.3606 20.6054C32.3888 20.6267 32.4182 20.6448 32.4545 20.6572C32.5634 20.608 32.5203 20.5265 32.4517 20.4525C32.4677 20.456 32.4853 20.4588 32.5057 20.4574C32.539 20.4539 32.5594 20.4436 32.5726 20.4303C32.5687 20.4038 32.5726 20.3736 32.5754 20.3474C32.5659 20.3209 32.551 20.2959 32.546 20.278C32.5295 20.2973 32.4948 20.3016 32.4786 20.3376C32.4383 20.2904 32.3992 20.2386 32.3494 20.1923C32.3885 20.1724 32.4344 20.1571 32.4786 20.1439C32.4677 20.1065 32.4543 20.0676 32.4582 20.0282C32.4515 20.0345 32.4448 20.0426 32.4383 20.0475C32.3642 20.004 32.1894 19.8537 32.2285 19.7728C32.2677 19.6945 32.4677 19.6496 32.5513 19.6012C32.5894 19.5799 32.6512 19.5529 32.701 19.5249C32.5852 19.5057 32.4761 19.451 32.3916 19.3781C32.3673 19.3781 32.3404 19.3804 32.3214 19.3752C32.2003 19.3511 32.1586 19.3041 32.0148 19.3041C32 19.3018 31.9773 19.3018 31.9569 19.3018C31.7687 19.4512 31.6034 19.6945 31.3933 19.7207C31.2403 19.7394 31.1541 19.586 31.0154 19.5416C30.9413 19.5131 30.8755 19.5393 30.795 19.5416C30.6629 19.5442 30.5513 19.5131 30.4238 19.5713C30.3337 19.6067 30.2503 19.6821 30.1519 19.6663C30.1077 19.4642 30.4171 19.4795 30.4987 19.4746C30.6534 19.4662 30.7435 19.3804 30.8822 19.307C30.955 19.265 31.0154 19.2932 31.0867 19.265C31.08 19.2477 31.0761 19.2304 31.0733 19.2094C31.1069 19.1985 31.1401 19.1901 31.174 19.1824C31.2076 19.1228 31.2375 19.0473 31.2817 19.0289C31.3558 18.997 31.4862 19.0689 31.5639 19.0753C31.6582 19.083 31.7952 19.0974 31.9259 19.0946C31.9905 19.0931 32.0484 19.0868 32.1077 19.0753C32.1144 19.0511 32.1144 19.0255 32.1144 18.9998C32.1264 19.0082 32.1399 19.0171 32.1564 19.0243C32.2034 19.0393 32.2288 19.0332 32.2503 19.022C32.2559 18.9791 32.2775 18.9356 32.3001 18.8933C32.2775 18.8974 32.2503 18.8945 32.2196 18.9152C32.2168 18.8576 32.2168 18.7998 32.2101 18.7408C32.273 18.7393 32.3337 18.7526 32.3997 18.7621C32.4389 18.7082 32.482 18.655 32.5301 18.6052C32.4859 18.623 32.4456 18.6446 32.3891 18.655C32.3555 18.5879 32.3136 18.3913 32.4025 18.3415C32.4257 18.3291 32.4551 18.3207 32.4887 18.3173C32.4954 18.1808 32.5759 18.0585 32.6903 17.9753C32.661 17.9347 32.6299 17.8984 32.5494 17.8604C32.459 17.8175 32.1698 17.6983 32.2467 17.574C32.2036 17.5774 32.1589 17.5774 32.1147 17.5803C31.9572 17.5921 31.9317 17.6344 31.8092 17.6854C31.6856 17.5026 31.8134 17.3606 32.019 17.2613C32.0003 17.2141 31.9936 17.1686 31.9908 17.1208C31.9046 17.0938 31.9102 17.0411 31.9046 16.9553C31.9007 16.915 31.8979 16.8764 31.8951 16.8396C31.8912 16.8376 31.8884 16.8376 31.8831 16.8376C31.8764 16.8992 31.8294 16.9193 31.6853 16.9193C31.6559 16.9193 31.5807 16.9124 31.5415 16.8957C31.5309 16.9124 31.5144 16.9213 31.4864 16.9303C31.4366 16.8465 31.461 16.7567 31.508 16.6706C31.4003 16.6715 31.2887 16.6749 31.1838 16.6749C30.8274 16.6764 30.6593 16.4222 30.6755 16.1757C30.6296 16.1328 30.5882 16.085 30.5667 16.0312C30.5357 16.0568 30.5088 16.0825 30.4822 16.1156C30.4176 16.191 30.3463 16.3197 30.1983 16.3079C30.1888 16.292 30.1824 16.2773 30.1768 16.263C30.1983 16.1944 30.1796 16.1475 30.1083 16.0825C30.0987 16.0735 30.0878 16.0672 30.0772 16.058C30.0585 16.0062 30.038 15.9564 30.0154 15.9031C29.9829 15.8262 29.9603 15.7448 29.842 15.7217C29.6873 15.6912 29.5944 15.7813 29.4934 15.8118C29.4182 15.7917 29.3443 15.771 29.2702 15.7517C29.1829 15.6768 29.0792 15.5337 28.9217 15.5565C28.8531 15.5663 28.8171 15.5959 28.7902 15.6328C28.7566 15.6224 28.7228 15.6155 28.6864 15.6072C28.8173 15.5338 28.9516 15.4382 29.0929 15.3872C29.3927 15.2793 29.5273 15.6434 29.7745 15.5991C29.8148 15.5928 29.8364 15.543 29.8766 15.5297C29.9413 15.5084 30.007 15.5361 30.0744 15.5228C30.2828 15.4903 30.2252 15.3374 30.1927 15.2079C30.2199 15.2286 30.2506 15.2467 30.287 15.2585C30.3905 15.2116 30.3499 15.1264 30.2828 15.0536C30.3004 15.0573 30.3124 15.0599 30.3368 15.0573C30.412 15.0515 30.4241 15.0213 30.4213 14.983C30.3715 14.9747 30.3245 14.9681 30.2733 14.9436C30.2666 14.9416 30.2638 14.9367 30.2599 14.9352C30.1035 14.9139 29.9908 14.8307 29.9194 14.7185C29.711 14.5607 29.5334 14.3744 29.3625 14.1796C29.2873 14.0938 29.2442 13.9988 29.2227 13.8992C29.2159 13.8992 29.2067 13.8992 29.1972 13.9003C29.1564 13.9441 29.1432 13.9847 29.099 14.0463C28.9952 13.9993 28.9404 13.9412 28.9189 13.8773C28.8769 13.8629 28.8394 13.8447 28.807 13.8206C28.5273 13.892 28.2101 13.7431 28.1239 13.5105C28.0459 13.4814 27.9813 13.4311 27.9245 13.3726C27.9124 13.3784 27.8951 13.381 27.8814 13.3908C27.5841 13.5456 27.3057 13.4213 27.1726 13.2163C27.0705 13.2252 26.9709 13.2149 26.8769 13.1769C26.873 13.1927 26.873 13.2074 26.873 13.2212C26.873 13.3148 26.9041 13.4532 26.7681 13.5016C26.6134 13.4144 26.4761 13.3217 26.3323 13.227C26.2517 13.1734 26.1695 13.1141 26.0579 13.1389C25.8131 13.1956 25.922 13.4567 25.6126 13.3945C25.6369 13.3945 25.6529 13.3945 25.6716 13.3922C25.8814 13.3577 25.8224 13.2039 25.7902 13.0752C25.8168 13.096 25.8478 13.1141 25.8842 13.1253C25.988 13.079 25.9488 12.9952 25.8842 12.9218C25.8976 12.9238 25.9152 12.9273 25.934 12.9253C26.0876 12.9109 25.9958 12.8006 25.9759 12.7473C25.9583 12.7689 25.922 12.7709 25.9113 12.8084C25.871 12.7591 25.8263 12.7079 25.7793 12.6616C25.8291 12.6351 25.5074 12.6926 25.5681 12.6748C25.4671 12.6624 25.7404 12.5729 25.6394 12.5481C25.341 12.4707 25.2411 12.2361 25.2814 12.0193C25.1245 11.9951 24.9625 11.9709 24.8039 11.9439C24.7608 11.9367 24.7343 11.9168 24.7018 11.9073C24.7018 11.9073 24.699 11.9108 24.699 11.9142C24.6803 11.9073 24.6697 11.8978 24.6559 11.89C24.5161 11.8235 24.4383 11.7136 24.4232 11.5869C24.3575 11.5973 24.2929 11.5869 24.2336 11.5716C24.1555 11.6016 24.0761 11.6309 23.9944 11.6554C23.6646 11.755 23.4347 11.5682 23.3648 11.3396C23.214 11.3252 23.073 11.265 22.9829 11.1266C22.8417 11.2075 22.6615 11.2357 22.4702 11.1513C22.4758 11.2337 22.4758 11.3313 22.3706 11.3693C22.212 11.2843 22.0733 11.1902 21.9309 11.0966C21.8503 11.0419 21.7667 10.9795 21.6565 11.0065C21.4078 11.0632 21.525 11.3341 21.2008 11.2587C21.0733 11.2293 20.8834 11.1459 20.7664 11.2293C20.6615 11.3022 20.7354 11.3954 20.7256 11.4807C20.7083 11.6508 20.414 11.664 20.3586 11.8425C20.3262 11.9436 20.3922 12.0584 20.329 12.1583C20.2621 12.26 20.0937 12.3112 19.9726 12.3679C19.9404 12.3823 19.9052 12.3979 19.8719 12.4166C19.8649 12.4229 19.8621 12.4284 19.8554 12.4359C19.8448 12.4436 19.8355 12.4537 19.8288 12.4629C19.7007 12.6299 19.8769 12.568 19.6294 12.5078C19.6145 12.5029 19.2221 12.6616 19.2084 12.6552C19.179 12.6857 19.1466 12.7165 19.1035 12.7396C18.9368 12.8274 18.699 12.8193 18.5306 12.72C18.5091 12.7338 18.478 12.7381 18.4565 12.7505C18.3681 12.8461 18.2428 12.9117 18.0828 12.9152C18.0786 13.0237 18.0828 13.1325 18.1055 13.239C18.1564 13.4924 18.0327 13.7486 17.7354 13.8217C17.6319 13.8482 17.5217 13.8321 17.4165 13.799C17.407 13.8482 17.3978 13.8917 17.379 13.9409C17.289 13.938 17.2862 14.5083 17.2056 14.5426C17.2081 14.5581 17.2101 14.5693 17.2115 14.5777C17.2098 14.5693 17.2078 14.5587 17.2056 14.548C17.2515 14.8008 17.1303 15.0533 16.8344 15.1261C16.7001 15.1592 16.5494 15.1359 16.4215 15.0729C16.3138 15.3455 15.9303 15.4154 15.6641 15.2859C15.6912 15.3124 15.7071 15.344 15.7382 15.3691C16.2333 15.794 15.3885 15.3973 14.9919 16.0398C14.9393 16.1248 14.84 15.8959 14.7765 15.819C14.7726 15.849 14.7726 15.8786 14.7606 15.9063C14.6733 16.1035 14.5709 16.2632 14.4109 16.4224C14.407 16.4253 14.4042 16.4282 14.3975 16.4314C14.4336 16.5762 14.4014 16.7331 14.3018 16.8494C14.6218 16.8764 14.7726 17.1136 14.7578 17.3486C14.8103 17.2855 14.8814 17.2377 15.0106 17.2495C15.1869 17.2677 15.3857 17.3402 15.5566 17.3776C15.7385 17.4176 15.9211 17.4565 16.1057 17.4988C16.1662 17.5138 16.2389 17.5417 16.3113 17.5541C16.1566 17.5449 16.0786 17.6767 16.0036 17.7582C15.9673 17.7611 15.9334 17.766 15.8999 17.7694C15.8193 17.7818 15.7413 17.7902 15.6646 17.8025C15.5905 17.7755 15.5138 17.7504 15.4199 17.7755C15.358 17.7933 15.3281 17.8239 15.311 17.8604C15.2006 17.8806 15.0929 17.9033 14.9857 17.9324C14.8752 17.9635 14.7636 18.0141 14.6669 18.0703C14.6464 18.055 14.6221 18.0412 14.5955 18.0254C14.5497 17.9969 14.5013 17.9652 14.4503 17.9347C14.4338 18.0481 14.3801 18.1532 14.2862 18.2295C14.2929 18.2715 14.2834 18.3084 14.2834 18.34C14.2806 18.3838 14.2766 18.3907 14.2968 18.4431C14.3127 18.4972 14.3292 18.5539 14.3063 18.5879C14.5069 18.7623 14.4814 19.0718 14.2929 19.2405C14.1757 19.345 14.0266 19.3816 13.8814 19.3666C13.8224 19.4268 13.7455 19.4786 13.6406 19.5057C13.6378 19.5057 13.6378 19.5065 13.6338 19.5085C13.7698 19.5914 13.8422 19.7029 13.7698 19.8497C13.708 19.8298 13.6649 19.8117 13.6246 19.7964C13.6582 19.9513 13.6313 20.1183 13.4898 20.2173C13.4615 20.236 13.4417 20.2593 13.4157 20.2809C13.6876 20.4223 13.7818 20.7744 13.5936 20.9882C13.6218 21.0568 13.6271 21.1316 13.6218 21.207C13.6246 21.2044 13.6274 21.207 13.6313 21.2044C13.649 21.1981 13.6585 21.1901 13.6677 21.18V21.1837C13.6772 21.2459 13.708 21.3006 13.7698 21.3213C13.849 21.3035 13.9228 21.2793 13.9796 21.2612C14.0548 21.2404 14.1625 21.1408 14.2431 21.1587C14.306 21.1711 14.3801 21.2986 14.4408 21.3323C14.5457 21.389 14.6022 21.3159 14.7029 21.3452C14.8548 21.391 14.9681 21.4575 15.1189 21.4324C15.2008 21.4192 15.4996 21.3426 15.5102 21.5467C15.4162 21.5827 15.3152 21.526 15.2185 21.5113C15.0758 21.4814 14.9765 21.5321 14.8473 21.5554C14.7706 21.5706 14.7007 21.5626 14.6336 21.602C14.5124 21.6731 14.4641 21.8421 14.3133 21.8539C14.101 21.8718 13.8873 21.6754 13.6652 21.5675C13.6585 21.5675 13.6436 21.5709 13.638 21.5709C13.5197 21.5807 13.466 21.5695 13.4392 21.5323C13.4352 21.5378 13.4297 21.5398 13.4232 21.5467C13.4232 21.5709 13.4232 21.5965 13.426 21.6222C13.4355 21.7272 13.4663 21.7822 13.3046 21.8084C13.2173 21.8237 13.1178 21.8237 13.0157 21.8208C13.0129 21.8286 13.009 21.8346 13.009 21.8421C13.3759 21.8988 13.7796 22.058 13.6344 22.3427C13.5941 22.3295 13.567 22.3162 13.5401 22.3047C13.5471 22.3324 13.5471 22.356 13.5471 22.383C13.5471 22.4279 13.5351 22.4665 13.52 22.5062C13.5443 22.6329 13.5172 22.7691 13.3924 22.8911C13.325 22.9602 13.2688 23.0322 13.2042 23.1056C13.2336 23.1839 13.2241 23.2948 13.2098 23.3425C13.141 23.3371 13.0862 23.3155 13.0336 23.2976C13.0187 23.3135 13.0092 23.3296 13 23.346C13.1007 23.3543 13.1936 23.3854 13.2758 23.4416C13.3147 23.4338 13.3578 23.4208 13.3994 23.4188C13.3994 23.477 13.4101 23.5351 13.4193 23.5924C13.4143 23.5895 13.4098 23.5895 13.4059 23.589C13.4235 23.6224 13.4263 23.6644 13.4355 23.7053C13.4529 23.7067 13.473 23.7067 13.4973 23.6981C13.5133 23.6883 13.5267 23.6797 13.5348 23.6699C13.5443 23.7577 13.5801 23.8423 13.7041 23.8331C13.7217 23.806 13.7312 23.7798 13.7351 23.7513C13.8162 23.8691 13.9007 24.015 14.0945 23.95C14.1564 23.9292 14.1857 23.8771 14.2571 23.8642C14.3001 23.857 14.3538 23.8878 14.3958 23.8751C14.6285 23.7988 14.4322 23.4508 14.7589 23.403C14.9284 23.3788 15.1488 23.4004 15.3267 23.3961C15.4411 23.3947 15.5578 23.3941 15.6722 23.3906C15.8378 23.2956 16.0557 23.2876 16.2305 23.3641C16.2344 23.3607 16.24 23.3607 16.2439 23.3598C16.2467 23.3572 16.2506 23.3535 16.2534 23.3535C16.1944 23.2352 16.1944 23.0932 16.2909 22.9487C16.318 22.9127 16.3488 22.8753 16.3743 22.8359C16.4792 22.9303 16.5869 23.0265 16.6876 23.1272C16.7897 23.2291 16.8973 23.2642 17.052 23.2401C17.0884 23.2331 17.1463 23.2041 17.1852 23.2179C17.2283 23.2332 17.2848 23.3129 17.3172 23.342L17.3603 23.3834C17.4422 23.4603 17.5891 23.441 17.6895 23.445C17.8283 23.4534 17.9315 23.4928 18.073 23.4678C18.1648 23.4534 18.2436 23.4272 18.3287 23.4042C18.4199 23.3765 18.5222 23.3944 18.6084 23.3736C18.5547 23.3002 18.4859 23.2041 18.4 23.1548C18.3863 23.15 18.358 23.1381 18.3312 23.1284C18.4632 23.1672 18.588 23.1713 18.7387 23.1643C18.7723 23.1643 18.9029 23.1796 18.9217 23.1428C18.9001 23.1108 18.8691 23.0909 18.8355 23.0679C18.9245 22.9781 19.0764 23.0645 19.1773 23.0167C19.1449 22.9579 18.9983 22.8845 19.0078 22.8284C19.035 22.8241 19.059 22.8071 19.0685 22.782C19.1194 22.8082 19.1664 22.8393 19.2045 22.8796C19.2336 22.8739 19.2627 22.8693 19.2915 22.8667C19.3141 22.8981 19.3371 22.93 19.3603 22.9623C19.4369 23.0593 19.5161 23.1586 19.5969 23.2605C19.6632 23.3477 19.7919 23.5063 19.9399 23.5671C20.4028 23.7669 20.8652 23.9672 21.2123 24.1172C21.5547 24.2828 21.7829 24.3927 21.7829 24.3927L21.7838 24.3899C22.1077 24.8729 22.4797 25.3773 22.7729 25.7633C22.6117 28.8322 20.8772 29 20.8772 29H26.252C26.252 29 24.6607 28.3753 24.1483 25.6655C24.3164 25.5486 24.4842 25.4349 24.6517 25.3338L25.7264 24.6659L25.7997 24.6202L25.8017 24.6181V24.6167L26.1533 24.214C26.2319 24.0409 26.3611 23.8832 26.3821 23.692C26.4484 23.4257 26.4531 23.1926 26.4638 22.9703C26.508 22.9464 26.5558 22.9277 26.6048 22.9148C26.6048 22.8753 26.6048 22.8393 26.6221 22.8151C26.6811 22.8117 26.7407 22.8324 26.8 22.835C26.8389 22.8359 26.8834 22.8295 26.9236 22.8295H26.9474C27.0551 22.4213 27.729 22.3934 27.9295 22.7561C27.9538 22.7533 27.9737 22.7423 28.0008 22.7423C28.0534 22.7423 28.1083 22.7533 28.1622 22.7694C28.1717 22.7665 28.1849 22.7665 28.1944 22.7625C28.2794 22.6689 28.3978 22.6142 28.5281 22.5989C28.5281 22.5949 28.532 22.5926 28.532 22.59C28.5793 22.5857 28.6291 22.5828 28.6789 22.5797C28.6937 22.59 28.7004 22.5926 28.7099 22.6018C28.8056 22.6142 28.8929 22.6413 28.9653 22.6945C28.9801 22.6767 28.9964 22.6565 29.0028 22.6413C29.0165 22.628 29.0232 22.6102 29.0285 22.5969C29.0999 22.6099 29.1617 22.628 29.2076 22.6611C29.221 22.6715 29.2397 22.6804 29.2489 22.6876C29.2545 22.7754 29.261 22.8468 29.3726 22.9119C29.3997 22.8839 29.4305 22.8578 29.452 22.8295C29.4856 22.8557 29.5206 22.8842 29.5541 22.9084C29.5768 22.8995 29.5994 22.8816 29.6294 22.8753C29.92 22.8031 30.1824 22.9623 30.2803 23.2061C30.3099 23.2824 30.3276 23.3633 30.3466 23.4407C30.5267 23.454 30.6934 23.5277 30.7715 23.6869C30.8548 23.6869 30.9421 23.6848 31.031 23.6834C31.2084 23.6814 31.4238 23.6543 31.5972 23.6722C31.9264 23.7082 31.7692 24.0611 32.0126 24.1276H32.0154C32.127 24.0625 32.2641 24.0392 32.3922 24.0542C32.412 23.9457 32.4713 23.8417 32.5642 23.7623C32.4957 23.4937 32.6719 23.1822 32.9972 23.1704C32.9972 23.1517 33 23.1338 33 23.1157C32.9474 23.0526 32.911 22.9772 32.8895 22.8958L32.8887 22.8969ZM17.3326 17.3238C17.2697 17.3327 17.2022 17.3356 17.1404 17.3468C16.9306 17.384 16.7731 17.5593 16.5863 17.6451C16.5592 17.6589 16.5298 17.6707 16.499 17.679C16.4599 17.6264 16.4196 17.5711 16.3278 17.5593C16.3698 17.5642 16.4112 17.5662 16.4515 17.5564C16.5768 17.5288 16.6613 17.403 16.7315 17.3301C16.8039 17.2492 16.7206 17.3224 16.8039 17.2492C16.9466 17.2492 17.7469 17.2576 17.8316 17.2564C17.8316 17.3333 17.2895 17.255 17.3326 17.3241V17.3238ZM25.5505 23.1468C25.6246 23.0616 25.72 22.991 25.8344 22.9611C25.8999 22.9453 25.9625 22.9415 26.0218 22.9476C26.0028 23.1756 25.9891 23.3947 25.9354 23.5648C25.9217 23.7061 25.8148 23.8017 25.7659 23.9246L25.7524 23.939C25.7231 23.9128 25.6909 23.8841 25.6562 23.8532C25.574 23.7758 25.478 23.6851 25.3759 23.5881C25.3194 23.5374 25.2859 23.494 25.2428 23.4468C25.1863 23.3831 25.1726 23.386 25.1432 23.2994C25.129 23.2645 25.1183 23.2294 25.1094 23.1934C25.1158 23.19 25.1217 23.1862 25.1284 23.1831C25.2495 23.1194 25.4106 23.1108 25.5505 23.1465V23.1468ZM24.6898 13.2543C24.8366 13.2036 24.9401 13.2598 25.0366 13.3277C24.866 13.3277 24.6923 13.3326 24.5217 13.3381C24.5796 13.3061 24.6372 13.2756 24.6898 13.2543ZM21.6324 23.038C21.6316 23.0069 21.6308 22.9752 21.6297 22.943L22.374 23.5452L22.3938 23.5193C22.3997 23.5366 22.4064 23.555 22.4143 23.5757C22.4909 23.7099 22.5608 23.7764 22.6294 23.8484C22.7667 23.9862 22.8957 24.0913 23.009 24.1826C23.0297 24.2007 23.0495 24.2183 23.0688 24.2356C22.9575 24.4604 22.8503 24.6907 22.8048 24.8749C22.3155 24.2048 21.8087 23.4597 21.6327 23.038H21.6324ZM22.0957 22.3902C22.174 22.5569 22.2727 22.7599 22.3264 22.9666L21.8638 22.592C21.8931 22.4973 21.9494 22.419 22.0959 22.3902H22.0957ZM23.1538 23.0296C23.2048 23.0803 23.2506 23.1583 23.3192 23.1998C23.3642 23.2277 23.4162 23.2225 23.4587 23.2012C23.4358 23.3466 23.4076 23.4747 23.3731 23.58C23.3678 23.5965 23.3614 23.614 23.3547 23.6319C23.3471 23.6293 23.3399 23.6267 23.332 23.6241C23.2129 23.5723 23.0733 23.5087 22.9427 23.4329C22.8789 23.3984 22.8126 23.348 22.7891 23.3325C22.7947 23.4329 22.7457 23.2136 22.7281 23.1623C22.6512 22.9188 22.5639 22.7052 22.4758 22.5201C22.5359 22.5569 22.5955 22.5949 22.6551 22.6349C22.8324 22.7527 23.0087 22.8863 23.1541 23.0296H23.1538ZM20.0657 23.1972C19.9717 23.173 19.9298 23.1252 19.8221 23.0374C19.7343 22.9646 19.6635 22.8701 19.5902 22.7849C19.7133 22.6801 19.8783 22.6269 20.0713 22.6747C20.2448 22.717 20.4034 22.8609 20.4503 23.025C20.4641 23.0201 20.4708 23.0146 20.4839 23.0112C20.5404 22.9968 20.6022 22.998 20.6618 23.0057C20.7648 22.8969 20.9231 22.8575 21.0752 22.8733C21.0792 22.9528 21.0817 23.029 21.0828 23.101L21.1021 23.2C21.1399 23.2994 21.1938 23.4137 21.2601 23.538C20.9169 23.4398 20.4917 23.3184 20.066 23.1972H20.0657ZM24.3323 24.7399C24.2445 24.7788 24.1592 24.8188 24.075 24.8597L24.1021 23.8472L24.0361 23.3241C24.0434 23.3279 24.0506 23.3313 24.0579 23.3345C24.0901 23.2945 24.1225 23.2591 24.1628 23.2314C24.1762 23.2098 24.1938 23.1891 24.1964 23.1664C24.2098 23.1773 24.2207 23.1862 24.2338 23.1969C24.3726 23.1324 24.5385 23.1232 24.6831 23.1678C24.6979 23.2654 24.7172 23.3699 24.7429 23.4701C24.753 23.5395 24.8229 23.673 24.8713 23.7223C24.9239 23.7948 24.979 23.8746 25.0271 23.9249C25.1262 24.0384 25.2182 24.1434 25.2976 24.2335C25.3138 24.2511 25.3292 24.2678 25.3443 24.2839L24.3317 24.7402L24.3323 24.7399ZM31.3491 20.9716C31.2789 21.0464 31.2039 21.1722 31.0531 21.1555C31.0372 21.1155 31.0196 21.0746 31.0034 21.0323C31.1309 21.0732 31.1365 20.9514 31.158 20.8993C31.1309 20.9097 31.0962 20.8967 31.0585 20.9215V20.8843C31.127 20.8463 31.1944 20.8095 31.2657 20.7867C31.2752 20.7804 31.2884 20.779 31.2979 20.7769C31.3681 20.7913 31.4431 20.8095 31.5105 20.8282C31.4526 20.8731 31.4 20.9151 31.3491 20.9716Z" fill="white"/>
<defs>
<filter id="filter0_d_3897_3229" x="0" y="0" width="45" height="45" filterUnits="userSpaceOnUse" color-interpolation-filters="sRGB">
<feFlood flood-opacity="0" result="BackgroundImageFix"/>
<feColorMatrix in="SourceAlpha" type="matrix" values="0 0 0 0 0 0 0 0 0 0 0 0 0 0 0 0 0 0 127 0" result="hardAlpha"/>
<feOffset dy="3"/>
<feGaussianBlur stdDeviation="1.5"/>
<feComposite in2="hardAlpha" operator="out"/>
<feColorMatrix type="matrix" values="0 0 0 0 0 0 0 0 0 0 0 0 0 0 0 0 0 0 0.12 0"/>
<feBlend mode="normal" in2="BackgroundImageFix" result="effect1_dropShadow_3897_3229"/>
<feBlend mode="normal" in="SourceGraphic" in2="effect1_dropShadow_3897_3229" result="shape"/>
</filter>
</defs>
</svg>
