<svg width="8" height="12" viewBox="0 0 8 12" fill="none" xmlns="http://www.w3.org/2000/svg">
<path d="M0.5 1.5C0.5 1.10217 0.6475 0.720644 0.910051 0.43934C1.1726 0.158035 1.5287 0 1.9 0H6.1C6.4713 0 6.8274 0.158035 7.08995 0.43934C7.3525 0.720644 7.5 1.10217 7.5 1.5V10.5C7.5 10.8978 7.3525 11.2794 7.08995 11.5607C6.8274 11.842 6.4713 12 6.1 12H1.9C1.5287 12 1.1726 11.842 0.910051 11.5607C0.6475 11.2794 0.5 10.8978 0.5 10.5V1.5ZM4.7 9.75C4.7 9.55109 4.62625 9.36032 4.49497 9.21967C4.3637 9.07902 4.18565 9 4 9C3.81435 9 3.6363 9.07902 3.50503 9.21967C3.37375 9.36032 3.3 9.55109 3.3 9.75C3.3 9.94891 3.37375 10.1397 3.50503 10.2803C3.6363 10.421 3.81435 10.5 4 10.5C4.18565 10.5 4.3637 10.421 4.49497 10.2803C4.62625 10.1397 4.7 9.94891 4.7 9.75Z" fill="#005FAE"/>
</svg>
