<svg width="20" height="19" viewBox="0 0 20 19" fill="none" xmlns="http://www.w3.org/2000/svg">
<path fill-rule="evenodd" clip-rule="evenodd" d="M1.01955 0L0.5 0.519589L3.56524 3.58469C2.05325 5.2219 1.12934 7.41042 1.12934 9.81469C1.12934 14.8876 5.24193 19 10.3147 19C15.3874 19 19.5 14.8876 19.5 9.81469C19.5 4.74178 15.3874 0.629382 10.3147 0.629382C7.91032 0.629382 5.722 1.55316 4.08479 3.06511L1.01955 0ZM4.08515 4.10473L10.0886 10.1083L10.6082 9.58866L4.60469 3.58514C6.10843 2.20596 8.11342 1.36421 10.3147 1.36421C14.9816 1.36421 18.7652 5.14763 18.7652 9.81469C18.7652 14.4818 14.9816 18.2652 10.3147 18.2652C5.64774 18.2652 1.86416 14.4818 1.86416 9.81469C1.86416 7.61338 2.70592 5.6086 4.08515 4.10473Z" fill="#393939"/>
</svg>
