<svg width="17" height="16" viewBox="0 0 17 16" fill="none" xmlns="http://www.w3.org/2000/svg">
<path d="M8.69221 0.000327746C13.0367 0.0408738 16.539 3.61969 16.4997 7.98114C16.4592 12.3413 12.8928 15.8567 8.54963 15.8174C7.25284 15.8054 5.9881 15.4754 4.85831 14.8584L0.5 16L1.80759 11.8826C1.09699 10.6587 0.730084 9.27198 0.743159 7.83757C0.782456 3.47618 4.34886 -0.039057 8.69221 0.000327746ZM6.31629 4.04445C6.20822 3.94802 5.56338 4.03761 5.56338 4.03761C4.77006 4.39043 4.55109 5.0175 4.51066 5.54451C4.50631 5.60356 4.50286 5.6617 4.50285 5.71639C4.47665 6.19855 4.63609 6.69552 4.8544 7.14809L4.85929 7.15688C4.88288 7.20015 4.90698 7.24558 4.9335 7.29166C5.35485 8.03463 6.11967 9.09951 7.20689 9.95973C8.94573 11.3349 10.5057 11.2948 10.5057 11.2948C12.0775 11.189 12.2336 10.082 12.281 9.7439C12.2824 9.73469 12.2838 9.72557 12.285 9.71754C12.3296 9.41522 12.1238 9.34546 12.1238 9.34546C12.1089 9.338 11.0058 8.7852 10.6531 8.63156C10.2994 8.47704 10.1873 8.62765 10.1873 8.62765L9.71758 9.22631C9.52219 9.66355 9.07209 9.46753 9.07209 9.46753C7.65894 8.89621 6.8303 7.64573 6.59557 7.29166C6.58809 7.28036 6.58038 7.26983 6.5741 7.26041C6.37268 6.95718 6.57898 6.80824 6.57898 6.80824C6.57898 6.80824 6.77199 6.5902 7.00768 6.30431C7.23952 6.02176 7.01893 5.66732 7.01354 5.65877L7.01257 5.6578L6.31629 4.04445Z" fill="white"/>
</svg>
