<svg width="196" height="51" viewBox="0 0 196 51" fill="none" xmlns="http://www.w3.org/2000/svg">
<path d="M195.5 50.6621H0.5V0.662109H195.5V50.6621ZM3.2937 47.8843H142.42V47.7422H142.657V3.59939H142.42V3.43989H3.2937V47.8843ZM145.772 3.59939H145.608V47.7422H145.772V47.8843H192.706V3.43989H145.772V3.59939ZM189.913 45.1066H148.007V6.21767H189.913V45.1066ZM162.534 40.1066H163.816V35.405L167.638 40.1066H168.681V33.1567H167.419V37.8583L163.597 33.1567H162.534V40.1066ZM174.547 32.8843C173.901 32.8843 173.266 33.0433 172.691 33.3498C172.15 33.6477 171.7 34.0956 171.388 34.6432C171.079 35.2071 170.915 35.846 170.915 36.4954C170.915 37.1448 171.079 37.7829 171.388 38.3466C171.699 38.895 172.15 39.3431 172.691 39.64C173.266 39.9464 173.901 40.1066 174.547 40.1066C175.193 40.1066 175.829 39.9463 176.403 39.64C176.944 39.3434 177.395 38.8964 177.706 38.3498C178.016 37.7849 178.179 37.1459 178.179 36.4954C178.179 35.8449 178.016 35.2051 177.706 34.64C177.393 34.0941 176.943 33.6473 176.403 33.3498C175.829 33.0433 175.193 32.8843 174.547 32.8843ZM153.595 40.1054H154.977L155.7 38.4377H159.312L160.016 40.1054H161.417L158.167 32.8843H156.844L153.595 40.1054ZM182.828 32.8854C182.296 32.8703 181.766 32.9652 181.273 33.1653C180.889 33.3202 180.559 33.5838 180.321 33.9228C180.113 34.2338 180.003 34.6009 180.006 34.9752C179.983 35.3718 180.108 35.7626 180.356 36.0722C180.585 36.3372 180.876 36.5409 181.203 36.6647C181.625 36.8209 182.059 36.9484 182.498 37.0467C182.88 37.1413 183.179 37.2227 183.399 37.2962C183.6 37.3589 183.787 37.4627 183.945 37.6011C184.015 37.6638 184.069 37.741 184.106 37.8268C184.143 37.9127 184.161 38.0057 184.159 38.0992C184.158 38.2333 184.122 38.3653 184.055 38.4811C183.987 38.5968 183.889 38.692 183.773 38.7578C183.417 38.9498 183.014 39.0379 182.611 39.0107C182.183 39.0087 181.757 38.9356 181.354 38.7937C180.975 38.6683 180.621 38.4804 180.303 38.2391L179.855 39.2493C180.206 39.5333 180.613 39.7408 181.049 39.8591C181.554 40.0188 182.081 40.1012 182.611 40.1043C183.144 40.1186 183.675 40.0238 184.169 39.8244C184.553 39.6718 184.885 39.4107 185.125 39.0736C185.333 38.763 185.444 38.3964 185.44 38.0221C185.464 37.6311 185.338 37.2456 185.091 36.9424C184.857 36.6777 184.564 36.4723 184.236 36.3457C183.819 36.1906 183.392 36.0649 182.957 35.9702C182.576 35.8756 182.278 35.7922 182.058 35.7186C181.857 35.6582 181.671 35.5562 181.511 35.4201C181.442 35.3593 181.386 35.2837 181.349 35.1988C181.312 35.114 181.295 35.0221 181.298 34.9297C181.293 34.7902 181.326 34.6513 181.392 34.5282C181.458 34.4054 181.554 34.3023 181.672 34.2288C182.02 34.03 182.418 33.9387 182.817 33.9683C183.145 33.9702 183.471 34.0181 183.788 34.1093C184.124 34.2024 184.446 34.3404 184.747 34.5196L185.157 33.5061C184.828 33.2937 184.465 33.1387 184.085 33.0471C183.675 32.9412 183.252 32.8866 182.828 32.8854ZM174.55 34.028C174.973 34.0281 175.39 34.1373 175.763 34.3449C176.12 34.5494 176.413 34.8548 176.61 35.2259C176.814 35.615 176.921 36.0522 176.921 36.4954C176.921 36.9384 176.814 37.375 176.61 37.7639C176.413 38.1351 176.12 38.4404 175.763 38.645C175.39 38.8526 174.973 38.9618 174.55 38.9618C174.126 38.9618 173.709 38.8526 173.336 38.645C172.979 38.4404 172.684 38.1352 172.488 37.7639C172.284 37.375 172.178 36.9384 172.178 36.4954C172.178 36.0522 172.284 35.615 172.488 35.2259C172.684 34.8546 172.979 34.5494 173.336 34.3449C173.709 34.1373 174.126 34.028 174.55 34.028ZM158.868 37.3873H156.155L157.506 34.2309L158.868 37.3873ZM24.7539 16.2188C26.4737 16.2272 28.1204 16.9344 29.334 18.1871C30.5477 19.44 31.2298 21.1368 31.2307 22.905C31.2324 23.7794 31.0656 24.6466 30.7406 25.4549C30.4158 26.263 29.9389 26.9982 29.3373 27.6163C28.7356 28.2343 28.0206 28.7238 27.2343 29.0573C26.448 29.3908 25.6046 29.5619 24.7539 29.5597H18.2487V36.2188H15.0272V16.2188H24.7539ZM101.079 16.2188C102.852 16.227 104.55 16.9302 105.805 18.1762C107.059 19.4223 107.769 21.1108 107.778 22.8734C107.787 24.2254 107.37 25.5467 106.586 26.6517C105.865 27.7256 104.834 28.5588 103.629 29.041L107.778 36.2188H103.917L100.031 29.5597H94.3519V36.2188H91.0158V16.2188H101.079ZM42.9303 16.2199C45.2584 16.2121 47.5169 17.0073 49.321 18.4702C51.1249 19.9333 52.3627 21.9739 52.8229 24.2429C53.2828 26.5119 52.937 28.8702 51.844 30.9139C50.7508 32.9574 48.9779 34.5611 46.8284 35.4506C44.6791 36.3399 42.2858 36.4603 40.0569 35.7912C37.8283 35.122 35.9012 33.7043 34.606 31.7808C33.3112 29.8572 32.7276 27.5458 32.9549 25.2422C33.1823 22.9387 34.2072 20.7851 35.8533 19.1484C36.7665 18.2023 37.866 17.4529 39.0835 16.949C40.3013 16.4451 41.6115 16.1972 42.9303 16.2199ZM64.5379 16.2188C65.8387 16.2064 67.1284 16.4709 68.3236 16.9957C69.4956 17.5043 70.5604 18.2397 71.4599 19.1603L69.142 21.5237C68.2266 20.5853 67.0577 19.9474 65.7852 19.691C64.5127 19.4347 63.1941 19.5708 61.9984 20.0838C61.2174 20.4224 60.5073 20.9116 59.9064 21.5237C59.3142 22.1331 58.8351 22.8476 58.4932 23.632C57.8199 25.2933 57.8199 27.1604 58.4932 28.8219C58.8398 29.6118 59.3183 30.335 59.9064 30.9583C60.4961 31.5517 61.1917 32.0251 61.9547 32.3527C62.769 32.6984 63.643 32.8757 64.5247 32.8724C65.3796 32.8816 66.2275 32.7146 67.0183 32.383C67.8091 32.0514 68.5269 31.5609 69.1289 30.941L71.4468 33.276C70.5473 34.1968 69.4814 34.9321 68.3094 35.4408C67.1143 35.9654 65.8254 36.23 64.5247 36.2177C63.2154 36.2276 61.9172 35.9632 60.7118 35.4408C59.5491 34.9166 58.4879 34.1831 57.5787 33.276C56.6851 32.3629 55.9664 31.2869 55.4594 30.1043C54.9476 28.8723 54.6879 27.5461 54.6977 26.2079C54.6914 24.8903 54.9513 23.5854 55.4594 22.3743C55.9609 21.1793 56.6801 20.0921 57.5787 19.1712C58.4771 18.2508 59.541 17.5156 60.7118 17.0066C61.9183 16.4709 63.2224 16.2023 64.5379 16.2188ZM76.3608 27.8659C76.3477 28.518 76.4652 29.1666 76.7057 29.7702C76.9464 30.3739 77.3062 30.9203 77.761 31.3761C78.2078 31.8488 78.7439 32.2231 79.3368 32.4752C79.9298 32.7274 80.5677 32.8528 81.2094 32.8431C82.4943 32.8297 83.724 32.3024 84.635 31.3728C85.5463 30.4431 86.0671 29.1842 86.0874 27.8659V16.2188H89.3395L89.3297 27.8659C89.3492 28.9647 89.1481 30.0561 88.7405 31.0722C88.3326 32.0884 87.7262 33.0089 86.9583 33.7752C85.8254 34.9426 84.3786 35.7378 82.8039 36.0592C81.2291 36.3804 79.5966 36.2132 78.1146 35.5797C76.6325 34.946 75.367 33.8739 74.4805 32.5002C73.5943 31.1268 73.1262 29.5132 73.1361 27.8659V16.2188H76.3608V27.8659ZM119.199 16.222C121.789 16.2402 124.27 17.3002 126.105 19.1734C127.939 21.0466 128.983 23.5833 129.009 26.2361C129.033 27.5566 128.787 28.8682 128.288 30.0859C127.787 31.3039 127.044 32.4028 126.106 33.3097C124.969 34.4674 123.57 35.3212 122.035 35.7944C120.499 36.2677 118.873 36.3462 117.3 36.0234C115.728 35.7006 114.256 34.9853 113.017 33.9422C111.779 32.8993 110.81 31.5598 110.196 30.0426C109.583 28.5252 109.345 26.8754 109.501 25.2411C109.658 23.607 110.205 22.037 111.094 20.6708C111.984 19.3043 113.19 18.1834 114.602 17.4069C116.016 16.6303 117.595 16.2224 119.199 16.2188V16.222ZM119.199 19.5706C117.909 19.5699 116.647 19.9602 115.576 20.6936C114.503 21.427 113.668 22.4707 113.174 23.6906C112.681 24.9102 112.553 26.2523 112.804 27.5469C113.057 28.8417 113.678 30.0319 114.591 30.9649C115.503 31.8976 116.665 32.5328 117.93 32.7889C119.195 33.045 120.507 32.9107 121.697 32.4037C122.887 31.8967 123.905 31.0384 124.619 29.9394C125.334 28.8404 125.713 27.5486 125.711 26.2286C125.702 24.4632 125.013 22.7728 123.794 21.5248C122.574 20.2767 120.923 19.5712 119.199 19.5629V19.5706ZM42.9303 19.5499C41.6091 19.5486 40.3169 19.9373 39.2178 20.6664C38.1188 21.3956 37.2618 22.4327 36.7558 23.646C36.25 24.8594 36.1182 26.1957 36.3761 27.4839C36.6341 28.7719 37.2706 29.9552 38.2051 30.8834C39.1397 31.8116 40.3304 32.4436 41.6262 32.6988C42.9224 32.9538 44.2663 32.8211 45.4861 32.3169C46.7059 31.8126 47.7484 30.959 48.4806 29.8657C49.2126 28.7726 49.6018 27.4874 49.5992 26.1742C49.59 24.4188 48.8844 22.7369 47.636 21.4954C46.3874 20.254 44.6961 19.5527 42.9303 19.5434V19.5499ZM164.877 31.2177C164.73 31.2111 164.584 31.2399 164.45 31.3001C164.316 31.3606 164.197 31.4517 164.104 31.566C163.898 31.8443 163.79 32.1849 163.803 32.5317H164.469C164.465 32.3738 164.517 32.2189 164.612 32.0933C164.654 32.0424 164.707 32.002 164.767 31.975C164.827 31.948 164.893 31.9346 164.959 31.9371C165.032 31.9389 165.103 31.9609 165.165 32C165.255 32.0603 165.344 32.125 165.429 32.1942C165.572 32.3048 165.723 32.4052 165.88 32.4937V32.5002C166.013 32.5684 166.162 32.6023 166.311 32.5979C166.457 32.6036 166.602 32.5747 166.735 32.5143C166.867 32.454 166.984 32.363 167.075 32.2496C167.278 31.9781 167.385 31.6474 167.381 31.3088H166.717C166.72 31.4607 166.668 31.6088 166.571 31.7254C166.528 31.7751 166.475 31.8146 166.415 31.8404C166.355 31.8662 166.289 31.8787 166.224 31.8752C166.151 31.8738 166.079 31.8506 166.019 31.809C165.928 31.7508 165.841 31.6871 165.758 31.6181C165.614 31.5091 165.464 31.4086 165.307 31.3186C165.175 31.2496 165.026 31.2148 164.877 31.2177ZM177.614 11.2177C176.196 11.2177 174.803 11.6025 173.594 12.331C172.369 13.1317 171.404 14.2609 170.814 15.584C169.459 18.8386 169.459 22.4846 170.814 25.7391C171.405 27.062 172.372 28.1904 173.599 28.9889L173.594 28.9922C174.803 29.7207 176.196 30.1054 177.614 30.1054C179.033 30.1054 180.423 29.7206 181.632 28.9922C182.864 28.196 183.834 27.0657 184.424 25.7391C185.782 22.4854 185.782 18.8377 184.424 15.584C183.832 14.258 182.864 13.1279 181.632 12.331C180.423 11.6026 179.033 11.2178 177.614 11.2177ZM154.995 21.3554H159.54C161.387 21.3554 162.692 21.5987 163.455 22.0857C163.802 22.322 164.085 22.6364 164.283 23.0026C164.482 23.3687 164.591 23.7764 164.599 24.1919C164.607 24.6074 164.515 25.0196 164.329 25.393C164.145 25.7662 163.873 26.0912 163.537 26.3403C162.827 26.8459 161.854 27.0987 160.616 27.0988C159.588 27.1006 158.564 26.9343 157.591 26.6061C156.677 26.3123 155.824 25.8566 155.073 25.2628L153.595 27.9483C154.546 28.6684 155.626 29.2052 156.778 29.5314C158.039 29.9126 159.35 30.1046 160.668 30.1011C162.083 30.1449 163.49 29.873 164.783 29.3047C165.795 28.8644 166.652 28.1366 167.247 27.2138C167.84 26.2908 168.144 25.2138 168.117 24.1202C168.151 23.3274 167.995 22.5381 167.664 21.8156C167.332 21.093 166.833 20.4572 166.208 19.9601C164.935 18.9393 162.972 18.4262 160.323 18.4214H158.518L158.922 14.1148H167.021V11.2177H155.96L154.995 21.3554ZM177.623 14.1756C178.244 14.1757 178.855 14.3239 179.405 14.6074C179.954 14.8911 180.425 15.3021 180.777 15.8042C181.551 16.8873 181.938 18.5056 181.941 20.6578C181.943 22.8101 181.555 24.4282 180.777 25.5113C180.425 26.0136 179.955 26.4243 179.405 26.7081C178.855 26.9918 178.244 27.1399 177.623 27.14C177.001 27.14 176.389 26.9919 175.839 26.7081C175.289 26.4243 174.819 26.0136 174.467 25.5113C173.689 24.4282 173.301 22.81 173.304 20.6578C173.306 18.5056 173.694 16.8873 174.467 15.8042C174.819 15.3021 175.289 14.8912 175.839 14.6074C176.389 14.3237 177.001 14.1756 177.623 14.1756ZM18.2487 19.5619V26.209H24.7539C25.6062 26.2016 26.4218 25.8506 27.0248 25.2313C27.6278 24.612 27.9706 23.7736 27.9786 22.8973C27.9795 22.0156 27.6408 21.169 27.0369 20.5428C26.4328 19.9166 25.6118 19.5609 24.7539 19.5542L18.2487 19.5619ZM101.075 19.5619H94.3519V26.1786L101.079 26.2058C101.516 26.2112 101.951 26.1276 102.354 25.9594C102.758 25.7911 103.123 25.5412 103.426 25.227C103.744 24.9211 103.997 24.5538 104.167 24.1473C104.337 23.7408 104.421 23.3029 104.415 22.8627C104.405 21.9867 104.05 21.1489 103.427 20.5298C102.803 19.9104 101.96 19.5591 101.079 19.551L101.075 19.5619Z" fill="white"/>
</svg>
