<svg width="175" height="45" viewBox="0 0 175 45" fill="none" xmlns="http://www.w3.org/2000/svg">
<path d="M127.038 2.42285H2.42307V42.5767H127.038V2.42285Z" fill="#005FAE"/>
<path d="M-7.62939e-06 0V45H174.462V0H-7.62939e-06ZM127.183 42.3721H2.64034V2.64341H127.183V42.3721ZM171.834 42.3721H129.824V2.64341H171.834V42.3721Z" fill="white"/>
<path d="M130.154 2.42285V42.5767H172.038V2.42285H130.154Z" fill="#005FAE"/>
<path d="M25.4225 14.1929C26.7961 14.1997 28.1113 14.7627 29.0806 15.76C30.0501 16.7575 30.5948 18.1083 30.5955 19.516C30.5969 20.2123 30.4637 20.9025 30.2041 21.5461C29.9447 22.1895 29.5638 22.7747 29.0833 23.2668C28.6027 23.7589 28.0317 24.1485 27.4037 24.414C26.7755 24.6796 26.102 24.8158 25.4225 24.8141H20.2268V30.1155H17.6538V14.1929H25.4225ZM86.383 14.1929C87.7994 14.1995 89.156 14.7593 90.1579 15.7513C91.1599 16.7435 91.7265 18.0875 91.7338 19.491C91.7411 20.5674 91.4081 21.6191 90.782 22.4989C90.2059 23.354 89.3825 24.0171 88.4199 24.4011L91.7338 30.1155H88.65L85.5462 24.8141H81.0104V30.1155H78.3459V14.1929H86.383ZM39.94 14.1938C41.7994 14.1876 43.6033 14.8207 45.0442 15.9854C46.4851 17.1503 47.4737 18.7747 47.8412 20.5811C48.2086 22.3877 47.9325 24.265 47.0594 25.8921C46.1862 27.5192 44.7703 28.7957 43.0534 29.5039C41.3367 30.212 39.4252 30.3079 37.6451 29.7752C35.8649 29.2424 34.3258 28.1138 33.2914 26.5823C32.2571 25.0509 31.7911 23.2108 31.9727 21.3767C32.1543 19.5428 32.9728 17.8284 34.2876 16.5253C35.017 15.7721 35.8951 15.1755 36.8676 14.7743C37.8403 14.3732 38.8867 14.1758 39.94 14.1938ZM57.198 14.1929C58.237 14.1832 59.2671 14.3936 60.2216 14.8115C61.1578 15.2164 62.0082 15.8018 62.7266 16.5348L60.8753 18.4163C60.1441 17.6693 59.2106 17.1614 58.1942 16.9573C57.1779 16.7532 56.1247 16.8616 55.1697 17.27C54.5458 17.5396 53.9787 17.929 53.4988 18.4163C53.0258 18.9015 52.6431 19.4702 52.3701 20.0948C51.8323 21.4176 51.8324 22.9038 52.3701 24.2266C52.6469 24.8556 53.029 25.4311 53.4988 25.9275C53.9698 26.3999 54.5253 26.7768 55.1348 27.0375C55.7852 27.3129 56.4832 27.4539 57.1875 27.4514C57.8702 27.4586 58.5475 27.3257 59.1791 27.0618C59.8108 26.7977 60.3841 26.4073 60.8649 25.9137L62.7161 27.7727C61.9977 28.5058 61.1465 29.0911 60.2103 29.4961C59.2558 29.9139 58.2264 30.1244 57.1875 30.1146C56.1416 30.1224 55.1048 29.9121 54.1421 29.4961C53.2134 29.0787 52.3658 28.4949 51.6397 27.7727C50.9259 27.0457 50.3519 26.1892 49.947 25.2477C49.5381 24.2668 49.3308 23.2111 49.3386 22.1456C49.3336 21.0966 49.5411 20.0578 49.947 19.0936C50.3476 18.1421 50.9219 17.2767 51.6397 16.5435C52.3573 15.8107 53.2069 15.2254 54.1421 14.8201C55.1057 14.3937 56.1473 14.1799 57.198 14.1929ZM66.641 23.4655C66.6304 23.9848 66.7242 24.5009 66.9164 24.9816C67.1086 25.4624 67.3959 25.8971 67.7593 26.2601C68.1162 26.6365 68.5443 26.9344 69.0178 27.1352C69.4915 27.336 70.0009 27.4357 70.5135 27.428C71.5399 27.4173 72.5218 26.9977 73.2495 26.2575C73.9774 25.5173 74.3935 24.5152 74.4096 23.4655V14.1929H77.0071L76.9992 23.4655C77.0147 24.3404 76.8543 25.2091 76.5286 26.0182C76.2028 26.8274 75.7185 27.56 75.1052 28.1701C74.2002 29.0995 73.0449 29.7326 71.787 29.9885C70.5293 30.2443 69.2254 30.1111 68.0417 29.6066C66.8578 29.1022 65.8472 28.2487 65.1392 27.155C64.4312 26.0615 64.0573 24.7771 64.0654 23.4655V14.1929H66.641V23.4655ZM100.855 14.1955C102.925 14.21 104.906 15.054 106.372 16.5452C107.837 18.0365 108.67 20.056 108.691 22.168C108.711 23.2194 108.514 24.2635 108.115 25.233C107.715 26.2028 107.122 27.0774 106.373 27.7995C105.464 28.7214 104.347 29.4009 103.121 29.7777C101.894 30.1545 100.595 30.2169 99.3395 29.96C98.0834 29.7029 96.9079 29.1336 95.9184 28.3031C94.9291 27.4728 94.1551 26.4064 93.6653 25.1984C93.1754 23.9903 92.9849 22.6772 93.1101 21.3759C93.2352 20.0748 93.6721 18.8251 94.3826 17.7373C95.0933 16.6494 96.056 15.7571 97.1848 15.1389C98.3136 14.5207 99.5742 14.1959 100.855 14.1929V14.1955ZM100.855 16.8614C99.8253 16.8608 98.818 17.1716 97.9614 17.7555C97.1049 18.3393 96.438 19.1702 96.0439 20.1414C95.65 21.1125 95.5471 22.1808 95.7484 23.2115C95.9498 24.2425 96.4464 25.1899 97.1753 25.9327C97.904 26.6753 98.8322 27.1809 99.8424 27.3848C100.853 27.5888 101.9 27.4819 102.851 27.0781C103.802 26.6745 104.615 25.9914 105.185 25.1164C105.756 24.2414 106.059 23.213 106.057 22.162C106.05 20.7565 105.499 19.4108 104.526 18.4172C103.552 17.4235 102.232 16.8619 100.855 16.8553V16.8614ZM39.94 16.845C38.8848 16.8439 37.8527 17.1534 36.9749 17.7339C36.0971 18.3143 35.4126 19.1399 35.0085 20.106C34.6044 21.0721 34.4992 22.1358 34.7052 23.1615C34.9113 24.187 35.4196 25.1289 36.166 25.8679C36.9125 26.6069 37.8634 27.11 38.8985 27.3132C39.9337 27.5162 41.007 27.4106 41.9813 27.0091C42.9557 26.6075 43.7883 25.9281 44.3731 25.0576C44.9577 24.1872 45.2686 23.1644 45.2665 22.1188C45.2592 20.7211 44.6956 19.3822 43.6985 18.3939C42.7012 17.4056 41.3503 16.8471 39.94 16.8398V16.845ZM20.2268 16.8545V22.1464H25.4225C26.1033 22.1405 26.7547 21.8611 27.2363 21.3681C27.718 20.875 27.9917 20.2076 27.9981 19.51C27.9988 18.8079 27.7284 18.134 27.2459 17.6354C26.7634 17.1368 26.1077 16.8537 25.4225 16.8484L20.2268 16.8545ZM86.3804 16.8545H81.0104V22.1223L86.383 22.1438C86.7326 22.1482 87.0794 22.0817 87.4019 21.9477C87.7245 21.8137 88.0159 21.6149 88.2578 21.3646C88.5121 21.1211 88.7139 20.8288 88.8497 20.5051C88.9853 20.1813 89.0528 19.8329 89.0475 19.4823C89.0401 18.7849 88.7568 18.118 88.2586 17.625C87.7605 17.132 87.087 16.8523 86.383 16.8458L86.3804 16.8545Z" fill="white"/>
<path d="M169.269 40.1539H132.577V5.19238H169.269V40.1539ZM145.297 34.7539H146.42V30.6527L149.766 34.7539H150.678V28.6915H149.574V32.7928L146.228 28.6915H145.297V34.7539ZM155.815 28.4539C155.25 28.4539 154.693 28.5927 154.19 28.86C153.717 29.1199 153.322 29.5105 153.049 29.9882C152.778 30.4801 152.635 31.0374 152.635 31.6039C152.635 32.1703 152.778 32.727 153.049 33.2187C153.321 33.6971 153.716 34.088 154.19 34.3469C154.693 34.6143 155.25 34.7539 155.815 34.7539C156.381 34.7539 156.938 34.6142 157.441 34.3469C157.914 34.0883 158.309 33.6984 158.582 33.2216C158.853 32.7287 158.995 32.1713 158.995 31.6039C158.995 31.0364 158.853 30.4783 158.582 29.9854C158.308 29.5092 157.913 29.1196 157.441 28.86C156.938 28.5927 156.381 28.4539 155.815 28.4539ZM137.469 34.753H138.68L139.312 33.2982H142.475L143.092 34.753H144.318L141.473 28.4539H140.315L137.469 34.753ZM163.066 28.4549C162.6 28.4417 162.136 28.5246 161.704 28.6991C161.368 28.8342 161.079 29.064 160.871 29.3598C160.689 29.631 160.593 29.9513 160.595 30.2779C160.575 30.6238 160.684 30.9647 160.902 31.2348C161.102 31.466 161.357 31.6437 161.643 31.7516C162.013 31.8879 162.392 31.9991 162.777 32.0848C163.112 32.1673 163.373 32.2383 163.566 32.3024C163.742 32.3571 163.905 32.4476 164.044 32.5684C164.105 32.6231 164.153 32.6904 164.185 32.7654C164.217 32.8403 164.233 32.9213 164.231 33.0029C164.231 33.1199 164.199 33.235 164.14 33.336C164.081 33.4369 163.996 33.5201 163.893 33.5775C163.582 33.745 163.229 33.8217 162.876 33.798C162.501 33.7962 162.129 33.7324 161.775 33.6087C161.444 33.4993 161.133 33.3355 160.856 33.125L160.463 34.0062C160.771 34.2539 161.127 34.4349 161.508 34.5382C161.951 34.6774 162.412 34.7494 162.876 34.7521C163.343 34.7645 163.807 34.6817 164.24 34.5078C164.577 34.3747 164.867 34.1469 165.077 33.8528C165.26 33.5819 165.356 33.2622 165.353 32.9356C165.373 32.5946 165.264 32.2583 165.047 31.9939C164.843 31.7629 164.586 31.5839 164.299 31.4734C163.934 31.3381 163.56 31.2284 163.18 31.1459C162.845 31.0633 162.584 30.9905 162.391 30.9262C162.216 30.8736 162.053 30.7846 161.914 30.6659C161.853 30.6129 161.804 30.5469 161.771 30.4728C161.739 30.3989 161.724 30.3187 161.726 30.2381C161.722 30.1164 161.751 29.9953 161.808 29.8879C161.866 29.7808 161.951 29.6908 162.054 29.6267C162.358 29.4533 162.707 29.3736 163.056 29.3995C163.344 29.4011 163.63 29.443 163.906 29.5226C164.201 29.6038 164.483 29.7241 164.746 29.8803L165.105 28.9963C164.817 28.811 164.5 28.6758 164.167 28.5959C163.807 28.5035 163.437 28.4559 163.066 28.4549ZM155.817 29.4515C156.188 29.4516 156.553 29.5469 156.88 29.728C157.192 29.9064 157.449 30.1728 157.621 30.4965C157.8 30.8359 157.894 31.2173 157.894 31.6039C157.894 31.9904 157.8 32.3712 157.621 32.7104C157.449 33.0342 157.192 33.3006 156.88 33.479C156.553 33.66 156.188 33.7553 155.817 33.7553C155.447 33.7553 155.082 33.66 154.755 33.479C154.442 33.3006 154.184 33.0343 154.012 32.7104C153.834 32.3712 153.741 31.9904 153.741 31.6039C153.741 31.2173 153.834 30.8359 154.012 30.4965C154.184 30.1726 154.442 29.9064 154.755 29.728C155.082 29.5469 155.447 29.4515 155.817 29.4515ZM142.086 32.382H139.711L140.894 29.6285L142.086 32.382ZM147.347 27.0001C147.219 26.9944 147.091 27.0195 146.974 27.072C146.857 27.1247 146.753 27.2042 146.672 27.3039C146.491 27.5467 146.397 27.8438 146.407 28.1463H146.991C146.988 28.0086 147.032 27.8734 147.116 27.7639C147.153 27.7195 147.199 27.6843 147.252 27.6608C147.305 27.6371 147.362 27.6254 147.42 27.6276C147.484 27.6292 147.546 27.6484 147.6 27.6825C147.68 27.7351 147.757 27.7915 147.831 27.8519C147.956 27.9484 148.088 28.0361 148.227 28.1132V28.1189C148.343 28.1784 148.473 28.2079 148.604 28.204C148.731 28.209 148.859 28.1838 148.975 28.1312C149.091 28.0785 149.193 27.9992 149.273 27.9002C149.45 27.6634 149.544 27.3751 149.54 27.0796H148.96C148.962 27.2121 148.917 27.3413 148.831 27.4431C148.794 27.4864 148.747 27.5208 148.695 27.5434C148.642 27.5659 148.585 27.5767 148.528 27.5737C148.463 27.5724 148.401 27.5521 148.348 27.5159C148.269 27.4651 148.192 27.4096 148.12 27.3494C147.993 27.2543 147.862 27.1666 147.725 27.0881C147.609 27.0279 147.479 26.9976 147.347 27.0001ZM158.5 9.55392C157.258 9.55392 156.04 9.88961 154.981 10.5251C153.908 11.2235 153.063 12.2086 152.547 13.3627C151.36 16.2017 151.36 19.3822 152.547 22.2212C153.064 23.3751 153.911 24.3595 154.985 25.056L154.981 25.0588C156.04 25.6942 157.258 26.0299 158.5 26.0299C159.742 26.0299 160.96 25.6941 162.019 25.0588C163.097 24.3642 163.946 23.3783 164.463 22.2212C165.653 19.383 165.653 16.2009 164.463 13.3627C163.946 12.206 163.097 11.2203 162.019 10.5251C160.96 9.88967 159.742 9.55399 158.5 9.55392ZM138.695 18.3972H142.675C144.292 18.3972 145.434 18.6093 146.103 19.0342C146.406 19.2404 146.655 19.5146 146.829 19.8341C147.003 20.1534 147.098 20.509 147.105 20.8714C147.112 21.2339 147.03 21.5934 146.869 21.9192C146.707 22.2447 146.47 22.5282 146.175 22.7455C145.554 23.1866 144.701 23.407 143.617 23.4071C142.716 23.4087 141.821 23.2637 140.968 22.9774C140.168 22.7211 139.421 22.3235 138.764 21.8056L137.469 24.1482C138.302 24.7764 139.248 25.2446 140.257 25.5292C141.36 25.8616 142.509 26.0291 143.663 26.0261C144.901 26.0643 146.133 25.8271 147.265 25.3313C148.152 24.9473 148.903 24.3124 149.423 23.5074C149.943 22.7023 150.208 21.7628 150.185 20.8089C150.215 20.1174 150.078 19.4288 149.788 18.7985C149.497 18.1682 149.061 17.6136 148.513 17.18C147.398 16.2896 145.68 15.842 143.36 15.8378H141.781L142.133 12.0811H149.225V9.55392H139.541L138.695 18.3972ZM158.508 12.1341C159.052 12.1342 159.587 12.2635 160.068 12.5108C160.55 12.7583 160.962 13.1168 161.271 13.5548C161.948 14.4996 162.287 15.9112 162.289 17.7886C162.291 19.6661 161.952 21.0776 161.271 22.0224C160.962 22.4605 160.55 22.8188 160.068 23.0663C159.587 23.3138 159.052 23.443 158.508 23.4431C157.964 23.4431 157.428 23.3139 156.947 23.0663C156.465 22.8188 156.053 22.4605 155.745 22.0224C155.063 21.0776 154.724 19.666 154.726 17.7886C154.728 15.9112 155.067 14.4996 155.745 13.5548C156.053 13.1168 156.465 12.7584 156.947 12.5108C157.428 12.2633 157.964 12.1341 158.508 12.1341Z" fill="white"/>
</svg>
